<?xml version="1.0" encoding="UTF-8"?>
<svg id="Layer_1" xmlns="http://www.w3.org/2000/svg" version="1.1" viewBox="0 0 684 189">
  <!-- Generator: Adobe Illustrator 29.4.0, SVG Export Plug-In . SVG Version: 2.1.0 Build 152)  -->
  <defs>
    <style>
      .st0 {
        fill: #1d24ca;
      }

      .st1 {
        fill: none;
      }

      .st2 {
        fill: #201658;
      }
    </style>
  </defs>
  <g id="Layer_11" data-name="Layer_1">
    <g id="Layer_1-2">
      <rect class="st1" x="-25" y="-20" width="734.4" height="234.1"/>
      <path class="st2" d="M296,78.5v28.6h-3.7v-28.6h3.7Z"/>
      <path class="st2" d="M302.7,92.2c0-2.1,0-3.9-.2-5.6h3.3l.2,3.4h0c1-1.9,3.4-3.9,6.8-3.9s7.3,1.7,7.3,8.8v12.3h-3.7v-11.8c0-3.3-1.2-6.1-4.8-6.1s-4.4,1.7-5,3.8c-.2.5-.2,1.1-.2,1.7v12.4h-3.7v-15h0Z"/>
      <path class="st2" d="M344,86.6c0,1.5-.2,3.1-.2,5.7v11.9c0,4.7-.9,7.6-2.9,9.4-2,1.9-4.9,2.5-7.5,2.5s-5.2-.6-6.8-1.7l.9-2.8c1.4.9,3.5,1.6,6,1.6,3.8,0,6.6-2,6.6-7.2v-2.3h0c-1.1,1.9-3.4,3.4-6.5,3.4-5.1,0-8.8-4.3-8.8-10s4.5-10.9,9.3-10.9,5.5,1.9,6.4,3.6h0l.2-3.1h3.3ZM340.1,94.7c0-.6,0-1.2-.2-1.7-.7-2.2-2.5-3.9-5.2-3.9s-6.1,3-6.1,7.8,2,7.4,6.1,7.4,4.4-1.4,5.2-3.8c.2-.6.3-1.4.3-2v-3.7h0Z"/>
      <path class="st2" d="M352.1,97.6c0,5.1,3.3,7.1,7,7.1s4.3-.5,5.7-1.1l.6,2.7c-1.3.6-3.6,1.3-6.8,1.3-6.3,0-10.1-4.2-10.1-10.4s3.6-11.1,9.6-11.1,8.5,5.9,8.5,9.7,0,1.4-.1,1.7h-14.4ZM363,94.9c0-2.4-1-6.1-5.2-6.1s-5.4,3.5-5.7,6.1h10.9Z"/>
      <path class="st2" d="M371.3,92.2c0-2.1,0-3.9-.2-5.6h3.3l.2,3.4h0c1-1.9,3.4-3.9,6.8-3.9s7.3,1.7,7.3,8.8v12.3h-3.7v-11.8c0-3.3-1.2-6.1-4.8-6.1s-4.4,1.7-5,3.8c-.2.5-.2,1.1-.2,1.7v12.4h-3.7v-15h0Z"/>
      <path class="st2" d="M399,80.8c0,1.3-.9,2.3-2.4,2.3s-2.2-1-2.2-2.3,1-2.3,2.3-2.3,2.3,1,2.3,2.3h0ZM394.8,107.2v-20.6h3.7v20.6h-3.7Z"/>
      <path class="st2" d="M406.8,97.6c0,5.1,3.3,7.1,7,7.1s4.3-.5,5.7-1.1l.6,2.7c-1.3.6-3.6,1.3-6.8,1.3-6.3,0-10.1-4.2-10.1-10.4s3.6-11.1,9.6-11.1,8.5,5.9,8.5,9.7,0,1.4-.1,1.7h-14.4ZM417.8,94.9c0-2.4-1-6.1-5.2-6.1s-5.4,3.5-5.7,6.1h10.9Z"/>
      <path class="st2" d="M426,93c0-2.4,0-4.5-.2-6.4h3.3v4h.3c.9-2.8,3.2-4.5,5.7-4.5s.7,0,1.1,0v3.5h-1.3c-2.6,0-4.5,2-5,4.8,0,.5-.2,1.1-.2,1.7v11h-3.7v-14.1h0Z"/>
      <path class="st2" d="M447.7,77.7l-5.2,6.1h-2.7l3.7-6.1h4.2ZM440.1,107.2v-20.6h3.7v20.6h-3.7Z"/>
      <path class="st2" d="M461.4,107.2l-.3-2.6h-.1c-1.1,1.6-3.4,3.1-6.3,3.1-4.2,0-6.3-2.9-6.3-5.9,0-5,4.4-7.7,12.4-7.6v-.4c0-1.7-.5-4.8-4.7-4.8s-3.9.6-5.4,1.5l-.9-2.5c1.7-1.1,4.2-1.8,6.8-1.8,6.3,0,7.8,4.3,7.8,8.4v7.7c0,1.8,0,3.5.3,4.9h-3.4s.1,0,.1,0ZM460.8,96.7c-4.1,0-8.7.6-8.7,4.6s1.6,3.6,3.5,3.6,4.4-1.7,5-3.4c.1-.4.2-.8.2-1.2v-3.6h0Z"/>
      <path class="st2" d="M480.8,86.6l4.5,12.2c.5,1.4,1,3,1.3,4.2h0c.4-1.2.8-2.8,1.3-4.3l4.1-12.1h4l-5.6,14.7c-2.7,7-4.5,10.7-7,12.9-1.8,1.6-3.6,2.2-4.6,2.4l-.9-3.1c.9-.3,2.2-.9,3.3-1.8,1-.8,2.3-2.2,3.1-4.2.2-.4.3-.7.3-.9s0-.5-.3-1l-7.6-18.9h4.1Z"/>
      <path class="st2" d="M508.1,102.7c1.7,1,4.1,1.9,6.6,1.9,3.8,0,6-2,6-4.9s-1.5-4.2-5.4-5.7c-4.7-1.7-7.6-4.1-7.6-8.1s3.7-7.8,9.3-7.8,5.1.7,6.3,1.4l-1,3c-.9-.5-2.8-1.4-5.4-1.4-3.9,0-5.4,2.3-5.4,4.3s1.7,4,5.7,5.5c4.8,1.9,7.3,4.2,7.3,8.4s-3.3,8.2-10,8.2-5.8-.8-7.3-1.8l.9-3.1h0Z"/>
      <path class="st2" d="M533.5,80.8c0,1.3-.9,2.3-2.4,2.3s-2.2-1-2.2-2.3,1-2.3,2.3-2.3,2.3,1,2.3,2.3h0ZM529.4,107.2v-20.6h3.7v20.6h-3.7Z"/>
      <path class="st2" d="M538.8,103.3c1.1.7,3.1,1.5,4.9,1.5,2.7,0,4-1.4,4-3.1s-1.1-2.8-3.8-3.8c-3.7-1.3-5.4-3.4-5.4-5.8s2.7-6,7.1-6,3.9.6,5,1.3l-.9,2.7c-.8-.5-2.3-1.2-4.2-1.2s-3.4,1.3-3.4,2.8,1.2,2.5,3.9,3.5c3.6,1.4,5.4,3.1,5.4,6.2s-2.8,6.2-7.7,6.2-4.3-.6-5.8-1.4l.9-2.8h0Z"/>
      <path class="st2" d="M560.6,80.7v5.9h5.3v2.8h-5.3v11.1c0,2.6.7,4,2.8,4s1.7,0,2.2-.3l.2,2.8c-.7.3-1.9.5-3.3.5s-3.1-.6-4-1.6c-1.1-1.1-1.5-2.9-1.5-5.3v-11.2h-3.2v-2.8h3.2v-4.9l3.7-1h-.1Z"/>
      <path class="st2" d="M572,97.6c0,5.1,3.3,7.1,7,7.1s4.3-.5,5.7-1.1l.6,2.7c-1.3.6-3.6,1.3-6.8,1.3-6.3,0-10.1-4.2-10.1-10.4s3.7-11.1,9.6-11.1,8.5,5.9,8.5,9.7,0,1.4,0,1.7h-14.5ZM583,94.9c0-2.4-1-6.1-5.2-6.1s-5.4,3.5-5.7,6.1h10.9Z"/>
      <path class="st2" d="M591.2,92.2c0-2.1,0-3.9-.2-5.6h3.3l.2,3.3h0c1.2-1.9,3.1-3.8,6.5-3.8s4.9,1.7,5.8,4.1h0c.6-1.2,1.5-2,2.3-2.7,1.2-.9,2.6-1.4,4.5-1.4s6.8,1.8,6.8,8.9v12.1h-3.7v-11.6c0-3.9-1.4-6.3-4.5-6.3s-3.8,1.6-4.4,3.4c-.2.5-.3,1.2-.3,1.9v12.7h-3.7v-12.3c0-3.3-1.4-5.7-4.3-5.7s-4,1.9-4.6,3.7c-.2.6-.3,1.2-.3,1.8v12.4h-3.7v-15h.3Z"/>
      <path class="st2" d="M638,107.2l-.3-2.6h0c-1.2,1.6-3.4,3.1-6.3,3.1-4.2,0-6.3-2.9-6.3-5.9,0-5,4.4-7.7,12.4-7.6v-.4c0-1.7-.5-4.8-4.7-4.8s-3.9.6-5.3,1.5l-.8-2.5c1.7-1.1,4.2-1.8,6.8-1.8,6.3,0,7.8,4.3,7.8,8.4v7.7c0,1.8,0,3.5.3,4.9h-3.6ZM637.4,96.7c-4.1,0-8.7.6-8.7,4.6s1.6,3.6,3.5,3.6,4.4-1.7,5-3.4c0-.4.2-.8.2-1.2v-3.6h0Z"/>
      <path class="st2" d="M646.6,103.3c1.1.7,3.1,1.5,4.9,1.5,2.7,0,4-1.4,4-3.1s-1.1-2.8-3.8-3.8c-3.7-1.3-5.4-3.4-5.4-5.8s2.7-6,7.1-6,3.9.6,5,1.3l-.9,2.7c-.8-.5-2.3-1.2-4.2-1.2s-3.4,1.3-3.4,2.8,1.2,2.5,3.9,3.5c3.6,1.4,5.4,3.1,5.4,6.2s-2.8,6.2-7.7,6.2-4.3-.6-5.8-1.4l.9-2.8h0Z"/>
      <path class="st2" d="M31.3,91.2c-1.9,0-3.3-.5-4.3-1.5s-1.5-2.4-1.5-4.3v-48.3c0-1.9.5-3.3,1.5-4.3s2.4-1.5,4.3-1.5h20.4c4.2,0,7.8.6,10.7,1.9,2.9,1.2,5.2,3,6.8,5.3,1.6,2.3,2.3,5.1,2.3,8.3s-1.1,6.7-3.1,9.2-4.9,4.2-8.6,5v-1.3c4.2.6,7.4,2.2,9.8,4.8,2.3,2.6,3.5,5.9,3.5,9.9s-1.8,9.4-5.4,12.3-8.6,4.4-15,4.4h-21.4ZM36,56.7h13.8c3.7,0,6.5-.7,8.4-2.2,1.8-1.4,2.8-3.6,2.8-6.4s-.9-5-2.8-6.4c-1.8-1.4-4.6-2.2-8.4-2.2h-13.8v17.2h0ZM36,82.9h15.3c3.8,0,6.7-.8,8.5-2.2s2.7-3.8,2.7-6.8-.9-5.3-2.7-6.8c-1.8-1.5-4.6-2.2-8.5-2.2h-15.3s0,18,0,18Z"/>
      <path class="st2" d="M68.2,154.9c-.8-.8-2-1.2-3.5-1.2h-28.3v-45.3c0-1.8-.5-3.2-1.4-4.1s-2.3-1.4-4-1.4-3.1.5-4,1.4-1.4,2.3-1.4,4.1v49c0,1.8.5,3.1,1.4,4.1,1,1,2.3,1.5,4.1,1.5h33.6c1.5,0,2.7-.4,3.5-1.2s1.2-2,1.2-3.4-.4-2.6-1.2-3.4h0Z"/>
      <path class="st2" d="M143.8,92.1c-1.6,0-2.9-.4-3.8-1.4s-1.3-2.2-1.3-3.9v-50.5c0-1.8.4-3.1,1.3-4s2-1.4,3.4-1.4,2.3.2,2.9.7,1.4,1.3,2.3,2.4l32.5,42.2h-2.2v-40.2c0-1.6.4-2.9,1.3-3.8.9-.9,2.1-1.4,3.8-1.4s2.9.5,3.7,1.4,1.3,2.2,1.3,3.8v50.9c0,1.6-.4,2.8-1.2,3.7-.8.9-1.9,1.4-3.2,1.4s-2.3-.2-3.1-.8c-.8-.5-1.6-1.3-2.5-2.5l-32.4-42.2h2.1v40.2c0,1.7-.4,3-1.3,3.9-.9.9-2.1,1.4-3.7,1.4h0Z"/>
      <path class="st2" d="M147.1,163.4c-1.8,0-3.1-.5-4-1.5s-1.4-2.4-1.4-4.1v-49.4c0-1.8.5-3.2,1.4-4.1,1-.9,2.3-1.4,4.1-1.4h20.5c6.6,0,11.6,1.6,15.2,4.7,3.6,3.1,5.4,7.5,5.4,13.2s-.8,6.9-2.4,9.5c-1.6,2.7-3.9,4.7-7,6.1s-6.8,2.1-11.1,2.1l.8-1.3h2.8c2.3,0,4.3.6,6.1,1.7,1.7,1.1,3.2,2.9,4.5,5.4l6.4,11.8c.7,1.2,1,2.4.9,3.5,0,1.1-.5,2.1-1.3,2.8s-1.9,1.1-3.5,1.1-2.8-.3-3.7-1-1.8-1.7-2.6-3l-8.6-15.8c-1-1.9-2.2-3.2-3.6-3.9s-3.2-1-5.3-1h-8.1v19c0,1.8-.4,3.1-1.4,4.1-.9,1-2.3,1.5-4.1,1.5h0ZM152.6,130.7h13.2c3.9,0,6.9-.8,8.9-2.4s3-4,3-7.3-1-5.6-3-7.2c-2-1.6-5-2.4-8.9-2.4h-13.2v19.3h0Z"/>
      <path class="st0" d="M88.3,39.7h35c1.4,0,2.5-.4,3.3-1.2s1.1-1.8,1.1-3.3-.4-2.4-1.1-3.1c-.8-.7-1.9-1.1-3.3-1.1h-35c-1.4,0-2.5.4-3.3,1.1-.8.7-1.2,1.8-1.2,3.1s.4,2.5,1.2,3.3,1.8,1.2,3.3,1.2Z"/>
      <path class="st0" d="M88.3,64.8h35c1.4,0,2.5-.4,3.3-1.2s1.1-1.8,1.1-3.3-.4-2.4-1.1-3.1c-.8-.7-1.9-1.1-3.3-1.1h-35c-1.4,0-2.5.4-3.3,1.1s-1.2,1.8-1.2,3.1.4,2.5,1.2,3.3,1.8,1.2,3.3,1.2Z"/>
      <path class="st0" d="M123.4,82.2h-35c-1.4,0-2.5.4-3.3,1.1s-1.2,1.8-1.2,3.2.4,2.5,1.2,3.2c.8.7,1.8,1.1,3.3,1.1h35c1.4,0,2.5-.4,3.3-1.1s1.1-1.8,1.1-3.2-.4-2.5-1.1-3.2c-.8-.7-1.9-1.1-3.3-1.1Z"/>
      <path class="st0" d="M134.2,156.3l-22.5-49.7c-.7-1.6-1.6-2.8-2.7-3.5-1.1-.7-2.2-1.1-3.5-1.1s-2.6.3-3.6,1.1-1.9,1.9-2.7,3.5l-22.4,49.7c-.6,1.3-.8,2.5-.6,3.5.2,1.1.7,1.9,1.5,2.5s1.9.9,3.3.9,2.6-.4,3.4-1.1c.8-.7,1.6-1.9,2.3-3.6l5.4-12.8,1.4-3,11.9-28.3h.2l12,28.3,1.3,3,5.5,12.8c.7,1.6,1.5,2.8,2.3,3.5.9.8,2.1,1.1,3.7,1.1s2.4-.3,3.1-.9,1.3-1.4,1.4-2.5c.2-1.1,0-2.3-.7-3.6h0v.2h0Z"/>
      <rect class="st0" x="239.1" y="30.4" width="2.6" height="133.9"/>
    </g>
  </g>
</svg>