<svg xmlns="http://www.w3.org/2000/svg" id="Layer_1" version="1.1" viewBox="0 0 323 39"><defs><style>.st0{fill:#003a70}.st1{fill:#82bc00}</style></defs><path d="m221.12.48-12.47 30.15L196.12.48h-4.53l15.57 37.12h2.94L225.65.48h-4.53ZM239.46.68h-4.16V37.8h4.16V.68ZM305.68 7.12l7.41 17.68h-14.82l7.41-17.68Zm-1.6-6.44L288.35 37.8h4.48l3.84-9.16h18.02l3.84 9.16H323L307.28.68h-3.2Z" class="st1"/><path d="M102.2.58h-8.19v36.87h8.19V.58ZM131.86 0c6.01 0 11.32 2.65 14.99 6.88l-5.58 4.71a12.62 12.62 0 0 0-9.41-4.18c-6.59 0-11.75 4.97-11.75 11.64s5.16 11.58 11.75 11.58c3.72 0 7.12-1.59 9.46-4.23l5.58 4.7c-3.67 4.29-9.04 6.93-15.05 6.93-11 0-19.93-7.99-19.93-18.99S120.86 0 131.86 0ZM155.51.68v36.87h25.68v-7.4H163.7v-7.89h16v-7.25h-16V8.08h17.12V.68h-25.31Z" class="st0"/><path d="M263.82 33.97c10.34 0 15.3-6.08 15.3-14.7s-4.96-14.75-15.35-14.75h-7.46v29.45h7.51ZM252.15.68h11.94c12.05 0 19.19 7.62 19.19 18.59s-7.09 18.54-19.14 18.54h-11.99V.68Z" class="st1"/><path d="M37.3.73H0v5.26h37.3V.73ZM37.3 11.3H0v5.26h37.3V11.3ZM37.3 21.89H0v5.26h37.3v-5.26ZM37.3 32.45H0v5.26h37.3v-5.26ZM71.53 30.42c2.77 0 4.79-1.95 4.79-4.5s-1.97-4.34-4.84-4.34h-7.02v8.83h7.07Zm-1.7-15.13c2.34 0 3.98-1.64 3.98-3.91s-1.65-3.81-3.93-3.81h-5.42v7.72h5.37ZM56.43.58h14.72c5.9 0 10.58 3.97 10.58 9.42 0 3.54-1.75 6.35-4.74 7.41 4.9.85 7.45 4.55 7.45 9.15 0 6.24-4.78 10.9-11.27 10.9H56.42V.58Z" class="st0"/></svg>