<?xml version="1.0" encoding="UTF-8"?>
<svg id="Layer_1" xmlns="http://www.w3.org/2000/svg" version="1.1" viewBox="0 0 2872.6 764.8">
  <!-- Generator: Adobe Illustrator 29.4.0, SVG Export Plug-In . SVG Version: 2.1.0 Build 152)  -->
  <defs>
    <style>
      .st0 {
        fill: #0192d5;
      }

      .st1 {
        fill: #0065a5;
      }

      .st2 {
        fill: #a4ce4e;
      }
    </style>
  </defs>
  <path class="st2" d="M651.8,73.8c-9.8,0-22.5,3.2-39.3,9.5-70.8,26.3-133.9,70.4-191.6,133.6l-40.2,51.1,15.5,23.9c26.6,40.5,54.4,108.9,67.4,166.6,8,33.1,11.1,53.5,12.4,87.6.2,5.7.5,11.8.6,18.4,0,6.6.2,13.7.3,21.4.3,40.9.8,87.6-3.2,87.6h189.6l10.7-11.8c6.7-10.3,7.7-46.8,7.7-290.3s-.8-279.6-8.1-288.3c-5.1-6.1-12-9.3-21.8-9.3h0Z"/>
  <path class="st0" d="M108.6,73.8c-9.5-.2-16.4,2.6-22.3,8.3-8.5,8.3-8.9,24.3-8.9,288.3s1,281,7.7,291.3l7.7,11.8h188.6c145.6,0,189.4-1.5,192.4-6.6,2.1-3.6,3.5-40.1,3.2-81-.4-61.8-2.7-83.3-13.4-127.5-23.3-96.6-67.3-183.7-130.6-248.6-55.1-56.4-118.4-101.2-186.3-126.5-16.4-6.1-28.6-9.3-38.1-9.5Z"/>
  <path class="st1" d="M380.7,268.1l-12,15.6c-21.3,28-60.1,121-73.1,175-10.6,44.1-12.8,65.6-13.2,127.7-.3,41-.9,87.3,2.9,87.3h188.4c4,0,3.5-46.7,3.2-87.6-.4-61.8-3.3-83.2-13.4-127.5-13-57.6-40.8-126-67.3-166.5l-15.5-24h0Z"/>
  <path d="M2471.5,169.1c-27.7,0-54.7,10-74,27.6-23,20.9-31.4,38-35.8,72.4l-3.5,27.4h-39.8v69.1h41.1v102.8c0,56.5,1.5,104.3,3.4,106.2s20.4,3.5,41.1,3.5h37.7v-212.6h61.7v-69.1h-61.8v-17.6c0-25.9,19-42.6,44.6-39.5,10.8,1.3,23.3,4.1,27.8,6.1,6.1,2.8,12.4-2.9,24.2-21.7l16.2-25.6-11.6-9c-13.4-10.5-47.4-20-71.3-20ZM2230.1,169.6c-40.2,2.2-60.2,64.7-20.6,87,20,11.3,34,9.6,51.7-5.8,12.7-11,15.9-17.8,15.9-34.5s-12.2-39.5-34-45.2c-4.5-1.2-8.8-1.7-13-1.5h0ZM1295.8,179.3l-41.7,1.5-41.6,1.5-46.1,87.6c-25.3,48.2-47.7,89.3-49.6,91.3s-25.3-38-52.2-89l-48.8-92.6-41.1,1.3-41.1,1.3-5.9,135.5c-3.2,74.5-7.4,163.5-9.1,197.9l-3.2,62.4h80.9l3.4-67.7c1.8-37.3,3.7-88,4-112.9,1.2-85.8,1.7-85.7,48-.7l40.9,75h43.2l40.3-78.4,40.1-78.4,3.9,93c2.1,51.1,5.2,110.3,6.9,131.5l2.9,38.5h81.4l-.2-25.2c0-13.9-3.4-95.7-7.5-181.9s-7.5-164.5-7.5-174.1l-.3-17.4h0ZM1902.1,179.6v195.7c0,107.6,1.5,197.3,3.4,199.2s58.5,3.5,125.9,3.5h122.5v-74.4h-164.4V179.6h-87.4ZM1686.3,221.8v74.2l-21.8,1.5-21.8,1.7v63.7l21.8,1.7,21.8,1.7.2,70.1c.3,93,9.2,119,47.7,138.6,26.6,13.6,81,11.2,111.6-4.8l25.4-13.3-15.4-25.9-15.4-25.9-22.3,8.5c-20.7,7.7-23.5,7.6-36-.8-13.4-9.1-13.5-9.5-13.5-78v-69.1h66.8v-69.1h-66.3l-1.6-35.9-1.4-35.9-39.8-1.5-40-1.5h0ZM1485.6,290c-55.9.4-100,29.5-122.5,80.8-15.5,35.3-14.8,99.8,1.4,136,13.8,30.5,41.9,56.9,72.4,68.1,45.7,16.8,126.4,7.4,163.1-19.1l14-10-15.6-26.1-15.4-25.9-26.7,12.8c-28.4,13.7-65,17-88.3,7.8-17.3-6.8-38.7-30.7-38.7-43.3s5.9-10,95.1-10h95.1v-25.6c0-86.9-54.4-146-133.9-145.5ZM1486.3,354.6c15.8-.3,30.7,5.2,41.1,15.9,8.3,8.5,15.1,20.5,15.1,26.6,0,10.5-2.7,11-56.5,11s-56.5-1.9-56.5-5.5c0-12.5,15.5-35.2,28.1-41.2,9.3-4.4,19.1-6.7,28.7-6.8h0ZM2664,290.3c-80.1,0-133.3,50.9-138.9,133.1-4.7,68.2,19.4,116.6,71.4,143.8,31.1,16.2,34.9,16.9,81.6,15.1,40.9-1.6,53.8-4.4,78.4-16.8,16.2-8.2,29.4-16.6,29.4-18.8s-6.9-15-15.3-28.7l-15.3-24.9-18.3,11.3c-24.5,14.9-77.3,19.5-97.9,8.5-18.3-9.8-30.6-23.8-35.3-39.8l-3.5-12h196.8l-3.5-27.9c-12.1-97.4-53.3-142.9-129.6-142.9h0ZM2660,354.9c18,0,26.2,3.2,38.1,14.6,8.3,8,16.6,20,18.5,26.6,3.3,11.9,3,12-56.5,12s-59.8,0-56.5-12c1.8-6.6,10.2-18.5,18.5-26.6,11.6-11.4,19.9-14.6,37.9-14.6ZM2272,296.1l-39.8,1.5-39.8,1.5-1.4,132.8c-.8,73-.2,135.7,1.1,139.4,1.7,4.6,14.8,6.6,41.3,6.6h38.7v-281.8q-.1,0-.1,0Z"/>
</svg>