<?xml version="1.0" encoding="UTF-8"?>
<svg id="Layer_1" xmlns="http://www.w3.org/2000/svg" version="1.1" viewBox="0 0 2817.7 534.4">
  <!-- Generator: Adobe Illustrator 29.4.0, SVG Export Plug-In . SVG Version: 2.1.0 Build 152)  -->
  <defs>
    <style>
      .st0 {
        fill: #c13a66;
      }

      .st1 {
        fill: #eb1b24;
      }

      .st2 {
        fill: #652c8b;
      }

      .st3 {
        fill: #834098;
      }

      .st4 {
        fill: #a33d82;
      }

      .st5 {
        fill: #ee393a;
      }
    </style>
  </defs>
  <path class="st2" d="M99.6,456.7c-27.8-9.7-49.3-22.6-64.5-38.5l16.9-33.3c14.8,14.8,34.4,26.8,58.9,35.9s49.8,13.7,75.9,13.7,64-6.7,82.3-20.1c18.3-13.4,27.4-30.8,27.4-52.2s-5-29.4-14.9-39.1-22.1-17.2-36.5-22.5c-14.4-5.2-34.4-11-60.1-17.2-30.7-7.8-55.3-15.3-73.5-22.5-18.3-7.2-33.9-18.2-47-33-13-14.8-19.5-34.8-19.5-60.1s5.4-39.4,16.3-56.3c10.9-16.9,27.6-30.4,50.2-40.6,22.6-10.1,50.6-15.2,84-15.2s46.2,3.2,68.6,9.6,41.7,15.3,58.1,26.6l-14.6,34.4c-17.1-11.3-35.4-19.7-54.9-25.4-19.5-5.6-38.5-8.5-57.2-8.5-35.8,0-62.7,6.9-80.8,20.7s-27.1,31.6-27.1,53.4,5,29.5,14.9,39.4,22.4,17.5,37.4,22.8c15,5.3,35.1,11,60.4,17.2,30,7.4,54.2,14.7,72.7,21.9,18.5,7.2,34.1,18.1,47,32.7,12.8,14.6,19.3,34.3,19.3,59.2s-5.5,39.4-16.6,56.3-28.1,30.3-51.1,40.3c-23,9.9-51.2,14.9-84.6,14.9s-59.4-4.9-87.2-14.6h-.2ZM712.1,467.8l-93.4-131.3c-10.5,1.2-21.4,1.7-32.7,1.7h-109.7v129.6h-43.2V59.3h152.9c52.1,0,93,12.5,122.5,37.4,29.6,24.9,44.3,59.1,44.3,102.7s-8.1,58.8-24.2,80.8-39.2,37.8-69.2,47.6l99.8,140.1h-47.3.2ZM677.7,274.6c21.4-17.9,32.1-43,32.1-75.3s-10.7-58.4-32.1-76.2c-21.4-17.7-52.3-26.6-92.8-26.6h-108.5v204.8h108.5c40.5,0,71.4-8.9,92.8-26.8h0ZM1194.7,59.3l-180.9,408.5h-42.6L790.3,59.3h46.7l156.4,354.8,157.6-354.8h43.8,0Z"/>
  <path class="st1" d="M2118.6,59.9v408.5h-35.6l-262.6-331.5v331.5h-43.2V59.9h35.6l263.2,331.5V59.9h42.6ZM2292.5,426.4c-29.6-30.3-44.3-74.5-44.3-132.5V59.9h43.2v232.3c0,47.5,10.7,82.9,32.1,106.2,21.4,23.3,52.3,35,92.8,35s72-11.7,93.4-35,32.1-58.7,32.1-106.2V59.9h42v234c0,58-14.7,102.1-44.1,132.5-29.4,30.3-70.5,45.5-123.4,45.5s-94.2-15.2-123.7-45.5h-.1ZM2713.8,59.9h43.2v408.5h-43.2V59.9Z"/>
  <rect class="st3" x="1269.3" y="57.9" width="408.5" height="52.5" rx="23.3" ry="23.3"/>
  <rect class="st4" x="1269.3" y="176.6" width="408.5" height="52.5" rx="23.3" ry="23.3"/>
  <rect class="st0" x="1269.3" y="295.2" width="408.5" height="52.5" rx="23.3" ry="23.3"/>
  <rect class="st5" x="1269.3" y="413.9" width="408.5" height="52.5" rx="23.3" ry="23.3"/>
</svg>