<svg xmlns="http://www.w3.org/2000/svg" id="svg26" version="1.1" viewBox="0 0 238 35"><defs><style>.st1{fill-rule:evenodd;fill:#fffffe}</style></defs><g id="Page-1"><g id="Home"><g id="vida-security"><path id="Fill-1" d="M.02 34.89h118.94V.11H.02v34.78z" style="fill:#ed6e00;fill-rule:evenodd"/><path id="Fill-2" d="M118.96 34.89h119.02V.11H118.96v34.78z" style="fill-rule:evenodd;fill:#2b0d61"/><g id="Group-17"><path id="Fill-3" d="M83.76 11.78h-2.2l-2.79 6.54c-.32.73-.55 1.38-.76 1.99h-.04c-.21-.63-.48-1.34-.75-2.04l-2.54-6.49h-2.34l4.74 11.54h1.54l5.13-11.54Z" class="st1"/><path id="Fill-5" d="M85.08 23.25h2.15V11.76h-2.15v11.49z" class="st1"/><path id="Fill-7" d="M97.34 17.45c0 2.13-1.15 4.03-4.22 4.03h-1.37v-7.93h1.35c2.84 0 4.24 1.6 4.24 3.91m2.29-.05c0-3.36-2.24-5.65-6.48-5.65H89.6v11.49h3.41c4.14 0 6.62-2.41 6.62-5.84" class="st1"/><path id="Fill-8" d="M104.81 14.59c.07.4.26.85.46 1.39l2.75 7.27h2.11l-4.54-11.54h-1.56l-4.54 11.54h2.11l2.75-7.27c.2-.54.38-.99.45-1.39h.01Z" class="st1"/><path id="Fill-9" d="M134.74 15.23v-3.45h-.54c-.16.38-.38.54-.67.54-.76 0-1.11-.54-2.28-.54-1.87 0-3.43 1.49-3.43 3.23 0 3.8 5.96 2.95 5.96 6.08 0 1.11-.86 1.93-1.97 1.93-1.4 0-3.14-.92-3.62-3.26h-.54v3.83h.54c.03-.41.32-.76.73-.76.54 0 1.62.82 2.85.82 1.93 0 3.55-1.58 3.55-3.45 0-4.18-5.9-3.42-5.9-6.27 0-.92.76-1.52 1.87-1.52 1.33 0 2.57.95 2.79 2.82h.63Z" class="st1"/><path id="Fill-10" d="M139.28 15.93c.13-2.09 1.24-3.49 3.11-3.49 1.43 0 3.11 1.01 3.01 3.49h-6.12Zm8.25.53c.16-2.6-2.25-4.69-4.85-4.69-3.17 0-5.65 2.66-5.65 6.05s2.54 5.83 6.06 5.83c1.97 0 3.27-.67 4.63-2.41v-.82c-1.62 1.81-2.41 2.34-3.96 2.34s-4.54-1.27-4.47-6.3h8.25Z" class="st1"/><path id="Fill-11" d="M159.44 11.78h-.54c-.19.41-.48.63-.76.63-.57 0-1.49-.63-3.17-.63-3.2 0-5.8 2.76-5.8 6.21s2.31 5.67 5.65 5.67c2.03 0 3.74-.82 4.95-2.47v-.82c-1.17 1.62-2.82 2.35-4.19 2.35-2.28 0-4.22-2.57-4.22-5.64 0-2.76 1.55-4.66 3.77-4.66 1.87 0 3.3 1.3 3.77 3.33h.54v-3.96Z" class="st1"/><path id="Fill-12" d="M172.61 11.78h-.54l-3.81.35v.54c1.94.03 2.19.22 2.19 1.77v6.05c-.92 1.24-1.9 1.84-2.98 1.84-1.52 0-2.54-.95-2.54-2.53v-8.02h-.54l-3.62.35v.54c1.62 0 2 .41 2 1.49v5.73c0 2.09 1.46 3.77 3.68 3.77 1.52 0 2.82-.73 3.93-2.19h.06v1.84h4.09v-.54c-1.52 0-1.94-.35-1.94-1.58v-9.41Z" class="st1"/><path id="Fill-13" d="M180.12 14.76c1.02-.98 1.65-1.36 2.38-1.36s1.74.47 2.66.98l.86-2c-.57-.51-1.43-.89-2.06-.89-.76 0-1.74.63-3.84 2.44v-2.44h-.54l-3.93.35v.54c1.9 0 2.32.19 2.32 1.84v6.39c0 1.71-.19 2.15-1.9 2.15v.54H182v-.54c-1.49 0-1.87-.35-1.87-1.58v-6.43Z" class="st1"/><path id="Fill-14" d="M190.4 7.32c-.76 0-1.4.6-1.4 1.36s.63 1.39 1.4 1.39 1.36-.63 1.36-1.39-.6-1.36-1.36-1.36Zm1.05 4.2h-.54l-3.74.35v.54c1.65 0 2.12.21 2.12 1.76v6.88c0 1.33-.41 1.72-2.12 1.72v.54h6.15v-.54c-1.59 0-1.87-.61-1.87-1.72v-9.52Z" class="st1"/><path id="Fill-15" d="M207.04 14.39c-.41-.95-.15-1.54.71-1.67v-.82h-5.41v.82c1.3.03 1.82.37 2.39 1.67l3.94 9.1-.75 1.96c-.7 1.97-1.49 2.76-2.86 2.76-.38 0-.64-.06-1.08-.25l-.73 1.94c.57.35.92.48 1.4.48 1.37 0 2.83-1.49 3.72-4.1l3.78-11.14c.64-1.87 1.37-2.64 2.58-2.64v-.6h-3.98v.6c1.24.06 1.34.79.89 2.13l-1.97 5.94-2.61-6.18Z" class="st1"/><path id="Fill-16" d="M198.43 8.12h-.54c-.95 1.94-2.23 3.3-3.75 4.07v.54h2.13v7.53c0 1.94 1.34 3.27 3.24 3.27 1.27 0 2.42-.64 3.4-1.87l-.35-.41c-.67.76-1.27 1.08-2.1 1.08-1.24 0-2.04-.79-2.04-2.35v-7.24h3.93v-.83h-3.93V8.13Z" class="st1"/></g></g></g></g></svg>